<svg width="60" height="60" viewBox="0 0 60 60" fill="none" xmlns="http://www.w3.org/2000/svg">
<path d="M45 7.49998H17.085C16.4953 5.83195 15.3348 4.4261 13.8088 3.53091C12.2828 2.63571 10.4894 2.30882 8.74567 2.608C7.00193 2.90717 5.42009 3.81316 4.27974 5.16583C3.13938 6.51851 2.51393 8.23077 2.51393 9.99998C2.51393 11.7692 3.13938 13.4815 4.27974 14.8341C5.42009 16.1868 7.00193 17.0928 8.74567 17.392C10.4894 17.6912 12.2828 17.3643 13.8088 16.4691C15.3348 15.5739 16.4953 14.168 17.085 12.5H45C46.9891 12.5 48.8968 13.2902 50.3033 14.6967C51.7098 16.1032 52.5 18.0109 52.5 20C52.5 21.9891 51.7098 23.8968 50.3033 25.3033C48.8968 26.7098 46.9891 27.5 45 27.5H37.08C36.554 26.0529 35.5954 24.8029 34.3343 23.9195C33.0733 23.0361 31.5709 22.5622 30.0312 22.5622C28.4916 22.5622 26.9892 23.0361 25.7282 23.9195C24.4671 24.8029 23.5085 26.0529 22.9825 27.5H15C11.6848 27.5 8.50537 28.8169 6.16117 31.1612C3.81696 33.5054 2.5 36.6848 2.5 40C2.5 43.3152 3.81696 46.4946 6.16117 48.8388C8.50537 51.183 11.6848 52.5 15 52.5H30V60L40 50L30 40V47.5H15C13.0109 47.5 11.1032 46.7098 9.6967 45.3033C8.29018 43.8968 7.5 41.9891 7.5 40C7.5 38.0109 8.29018 36.1032 9.6967 34.6967C11.1032 33.2902 13.0109 32.5 15 32.5H23.0075C23.5384 33.9386 24.4975 35.18 25.7556 36.0568C27.0137 36.9335 28.5103 37.4036 30.0437 37.4036C31.5772 37.4036 33.0738 36.9335 34.3319 36.0568C35.59 35.18 36.5491 33.9386 37.08 32.5H45C48.3152 32.5 51.4946 31.183 53.8388 28.8388C56.183 26.4946 57.5 23.3152 57.5 20C57.5 16.6848 56.183 13.5054 53.8388 11.1612C51.4946 8.81695 48.3152 7.49998 45 7.49998ZM10 12.5C9.50555 12.5 9.0222 12.3534 8.61107 12.0787C8.19995 11.804 7.87952 11.4135 7.6903 10.9567C7.50108 10.4999 7.45157 9.99721 7.54804 9.51226C7.6445 9.02731 7.8826 8.58185 8.23223 8.23222C8.58186 7.88259 9.02732 7.64448 9.51227 7.54802C9.99723 7.45156 10.4999 7.50107 10.9567 7.69029C11.4135 7.87951 11.804 8.19994 12.0787 8.61106C12.3534 9.02218 12.5 9.50553 12.5 9.99998C12.5 10.663 12.2366 11.2989 11.7678 11.7678C11.2989 12.2366 10.663 12.5 10 12.5ZM30 32.5C29.5055 32.5 29.0222 32.3534 28.6111 32.0787C28.2 31.804 27.8795 31.4135 27.6903 30.9567C27.5011 30.4999 27.4516 29.9972 27.548 29.5123C27.6445 29.0273 27.8826 28.5819 28.2322 28.2322C28.5819 27.8826 29.0273 27.6445 29.5123 27.548C29.9972 27.4516 30.4999 27.5011 30.9567 27.6903C31.4135 27.8795 31.804 28.1999 32.0787 28.6111C32.3534 29.0222 32.5 29.5055 32.5 30C32.5 30.663 32.2366 31.2989 31.7678 31.7678C31.2989 32.2366 30.663 32.5 30 32.5Z" fill="#085CFE"/>
<path d="M50 42.5C48.5166 42.5 47.0666 42.9399 45.8332 43.764C44.5999 44.5881 43.6386 45.7594 43.0709 47.1299C42.5032 48.5003 42.3547 50.0083 42.6441 51.4632C42.9335 52.918 43.6478 54.2544 44.6967 55.3033C45.7456 56.3522 47.082 57.0665 48.5368 57.3559C49.9917 57.6453 51.4997 57.4968 52.8701 56.9291C54.2406 56.3614 55.4119 55.4001 56.236 54.1668C57.0601 52.9334 57.5 51.4834 57.5 50C57.5 48.0109 56.7098 46.1032 55.3033 44.6967C53.8968 43.2902 51.9891 42.5 50 42.5ZM50 52.5C49.5056 52.5 49.0222 52.3534 48.6111 52.0787C48.2 51.804 47.8795 51.4135 47.6903 50.9567C47.5011 50.4999 47.4516 49.9972 47.548 49.5123C47.6445 49.0273 47.8826 48.5819 48.2322 48.2322C48.5819 47.8826 49.0273 47.6445 49.5123 47.548C49.9972 47.4516 50.4999 47.5011 50.9567 47.6903C51.4135 47.8795 51.804 48.2 52.0787 48.6111C52.3534 49.0222 52.5 49.5055 52.5 50C52.5 50.663 52.2366 51.2989 51.7678 51.7678C51.2989 52.2366 50.663 52.5 50 52.5Z" fill="#085CFE"/>
</svg>
