<svg width="60" height="60" viewBox="0 0 60 60" fill="none" xmlns="http://www.w3.org/2000/svg">
<g clip-path="url(#clip0_201_16)">
<path d="M3.75 30C3.75 32.9102 4.19922 35.6934 5.09766 38.3496C5.99609 41.0059 7.27539 43.4473 8.93555 45.6738C10.5957 47.9004 12.5781 49.8242 14.8828 51.4453C17.1875 53.0664 19.7266 54.2969 22.5 55.1367V59.0039C19.1992 58.1445 16.1719 56.7969 13.418 54.9609C10.6641 53.125 8.29102 50.918 6.29883 48.3398C4.30664 45.7617 2.76367 42.9199 1.66992 39.8145C0.576172 36.709 0.0195313 33.4375 0 30C0 27.2461 0.351562 24.5898 1.05469 22.0312C1.75781 19.4727 2.77344 17.0898 4.10156 14.8828C5.42969 12.6758 6.99219 10.6543 8.78906 8.81836C10.5859 6.98242 12.6074 5.41016 14.8535 4.10156C17.0996 2.79297 19.4922 1.78711 22.0312 1.08398C24.5703 0.380859 27.2266 0.0195313 30 0C32.6367 0 35.1758 0.322266 37.6172 0.966797C40.0586 1.61133 42.3633 2.53906 44.5312 3.75C46.6992 4.96094 48.6816 6.41602 50.4785 8.11523C52.2754 9.81445 53.8477 11.6992 55.1953 13.7695C56.543 15.8398 57.6172 18.0859 58.418 20.5078C59.2188 22.9297 59.7168 25.4395 59.9121 28.0371L55.4004 23.5254C54.6582 20.6348 53.4863 17.9785 51.8848 15.5566C50.2832 13.1348 48.3496 11.0449 46.084 9.28711C43.8184 7.5293 41.3281 6.17188 38.6133 5.21484C35.8984 4.25781 33.0273 3.76953 30 3.75C27.5781 3.75 25.2539 4.0625 23.0273 4.6875C20.8008 5.3125 18.7207 6.19141 16.7871 7.32422C14.8535 8.45703 13.0762 9.83398 11.4551 11.4551C9.83398 13.0762 8.4668 14.8437 7.35352 16.7578C6.24023 18.6719 5.35156 20.7617 4.6875 23.0273C4.02344 25.293 3.71094 27.6172 3.75 30ZM30 15C27.9297 15 25.9863 15.3906 24.1699 16.1719C22.3535 16.9531 20.7715 18.0273 19.4238 19.3945C18.0762 20.7617 17.002 22.3535 16.2012 24.1699C15.4004 25.9863 15 27.9297 15 30C15 32.0117 15.3711 33.9258 16.1133 35.7422C16.8555 37.5586 17.9492 39.1797 19.3945 40.6055L16.7285 43.2715C14.9512 41.4941 13.5938 39.4629 12.6562 37.1777C11.7188 34.8926 11.25 32.5 11.25 30C11.25 28.2812 11.4746 26.6211 11.9238 25.0195C12.373 23.418 12.998 21.9238 13.7988 20.5371C14.5996 19.1504 15.5762 17.8906 16.7285 16.7578C17.8809 15.625 19.1504 14.6484 20.5371 13.8281C21.9238 13.0078 23.418 12.373 25.0195 11.9238C26.6211 11.4746 28.2812 11.25 30 11.25C31.4648 11.25 32.9004 11.416 34.3066 11.748C35.7129 12.0801 37.0508 12.5781 38.3203 13.2422C39.5898 13.9062 40.791 14.6875 41.9238 15.5859C43.0566 16.4844 44.0527 17.5391 44.9121 18.75H39.8145C38.4473 17.5391 36.9336 16.6113 35.2734 15.9668C33.6133 15.3223 31.8555 15 30 15ZM47.666 22.5L60 34.834V60H26.25V22.5H47.666ZM48.75 28.916V33.75H53.584L48.75 28.916ZM56.25 56.25V37.5H45V26.25H30V56.25H56.25ZM52.5 41.25V52.5H48.75V41.25H52.5ZM33.75 52.5V37.5H37.5V52.5H33.75ZM41.25 52.5V45H45V52.5H41.25Z" fill="#085CFE"/>
</g>
<defs>
<clipPath id="clip0_201_16">
<rect width="60" height="60" fill="white"/>
</clipPath>
</defs>
</svg>
