<svg width="112" height="24" viewBox="0 0 112 24" fill="none" xmlns="http://www.w3.org/2000/svg">
<g clip-path="url(#clip0)">
<path d="M9.74468 19.0802C8.93617 18.6096 8.42553 17.7113 8.42553 16.7701C8.42553 15.6578 9.61702 14.9733 10.5532 15.5294L12.383 16.599V13.9038C12.383 12.8342 11.8298 11.8503 10.8936 11.3369L0 5.00537V17.4974L10.9787 23.8717C11.617 24.2567 12.4255 23.7861 12.4255 23.0588V20.6631L9.74468 19.0802Z" fill="#AF59C1"/>
<path d="M9.87237 18.0536C9.61705 17.8824 9.44684 17.6258 9.44684 17.3263V17.0268C9.44684 16.5562 9.95748 16.2568 10.3405 16.5135C10.5958 16.6846 10.766 16.9413 10.766 17.2407V17.5402C10.766 17.968 10.2553 18.2675 9.87237 18.0536Z" fill="#AF59C1"/>
<path d="M9.82977 0.941288V1.71134L18.6383 6.84503C19.5745 7.40118 20.1702 8.38514 20.1702 9.49744V17.8397L20.8085 18.2247C21.4468 18.6097 22.2553 18.1392 22.2553 17.4119V8.21402C22.2553 7.1445 21.7021 6.16054 20.7659 5.64717L11.234 0.128454C10.5957 -0.256573 9.82977 0.214015 9.82977 0.941288Z" fill="#EF4F24"/>
<path d="M6.55316 2.86634V3.59361L15.4042 8.7273C16.3404 9.28345 16.9361 10.2674 16.9361 11.3797V19.6792L17.5744 20.0214C18.2127 20.4064 19.0212 19.9359 19.0212 19.2086V10.0963C19.0212 9.02677 18.4681 8.04281 17.5319 7.52944L7.95742 2.0535C7.31912 1.66848 6.55316 2.13906 6.55316 2.86634Z" fill="#F89D1D"/>
<path d="M3.27661 4.74866V5.47593L12.1277 10.6096C13.0638 11.123 13.617 12.1497 13.617 13.262V21.6043L14.2553 21.9893C14.8936 22.3743 15.7021 21.9037 15.7021 21.1765V12.0214C15.7021 10.9519 15.149 9.96791 14.2128 9.45454L4.68087 3.93583C4.08512 3.5508 3.27661 4.02139 3.27661 4.74866Z" fill="#35C1DB"/>
<path d="M67.1915 9.15503H66.5532V17.0267H62.7234V9.96786C62.7234 9.54006 62.383 9.15503 61.9149 9.15503H61.2766V17.0267H57.4468V9.96786C57.4468 9.54006 57.1064 9.15503 56.6383 9.15503H56V17.4973C56 17.9251 56.3404 18.3101 56.8085 18.3101H67.9575V9.96786C67.9575 9.49728 67.617 9.15503 67.1915 9.15503Z" fill="#000"/>
<path d="M83.4894 9.96786V11.8502C83.4894 15.1443 82.8511 16.7272 81.3618 17.0695V18.3529H81.4043C83.8298 18.0962 84.8937 16.1283 84.8937 11.8502V10.2673H88.766V17.4545C88.766 17.8823 89.1064 18.2673 89.5745 18.2673H90.2128V9.15503H84.3405C83.8298 9.15503 83.4894 9.49728 83.4894 9.96786Z" fill="#000"/>
<path d="M108.638 13.6042V13.4331L111.617 9.19781V9.15503H110.723C110.298 9.15503 109.915 9.36893 109.66 9.71118L107.489 12.9625L107.447 13.0053H105.83V10.0106C105.83 9.54006 105.447 9.19781 105.021 9.19781H104.426V18.3101H105.872V14.2032H107.532L110 17.754C110.255 18.0962 110.638 18.3101 111.064 18.3101H112.085L108.638 13.6042Z" fill="#000"/>
<path d="M48.8085 8.89844C46.1277 8.89844 43.9575 11.0803 43.9575 13.7754C43.9575 16.4706 46.1277 18.6524 48.8085 18.6524C51.4894 18.6524 53.6596 16.4706 53.6596 13.7754C53.6596 11.0803 51.4894 8.89844 48.8085 8.89844ZM48.8085 17.1551C46.9362 17.1551 45.4043 15.615 45.4043 13.7327C45.4043 11.8503 46.9362 10.3102 48.8085 10.3102C50.6809 10.3102 52.2128 11.8503 52.2128 13.7327C52.2128 15.6578 50.6809 17.1551 48.8085 17.1551Z" fill="#000"/>
<path d="M95.2766 6.84493C95.7022 6.84493 96.0001 6.50268 96.0001 6.11765C96.0001 5.68985 95.6596 5.39038 95.2766 5.39038C94.8511 5.39038 94.5532 5.73263 94.5532 6.11765C94.5532 6.50268 94.8511 6.84493 95.2766 6.84493Z" fill="#000"/>
<path d="M99.1064 6.84493C99.5319 6.84493 99.8298 6.50268 99.8298 6.11765C99.8298 5.68985 99.4894 5.39038 99.1064 5.39038C98.6809 5.39038 98.383 5.73263 98.383 6.11765C98.3404 6.50268 98.6809 6.84493 99.1064 6.84493Z" fill="#000"/>
<path d="M101.872 12.0215C101.702 11.5937 101.532 11.2087 101.234 10.8664C100.34 9.58298 98.8511 8.85571 97.3192 8.85571H97.2766C94.7234 8.89849 92.6383 10.9092 92.5107 13.4333C92.4255 14.8022 92.8936 16.0857 93.8298 17.0268C94.766 18.0108 96 18.5242 97.3192 18.5242C99.1064 18.5242 100.723 17.5402 101.574 15.9573V15.9145L101.021 15.6151C100.894 15.5295 100.723 15.4867 100.596 15.4867C100.34 15.4867 100.085 15.6151 99.9574 15.7862C99.3191 16.599 98.3404 17.0268 97.3192 17.0268C96.383 17.0268 95.4468 16.599 94.8085 15.9145L94.766 15.8718L101.872 12.0215ZM94.1702 14.7167L94.0851 14.7595L94.0426 14.6739C93.9575 14.3316 93.9149 14.0322 93.9149 13.6899C93.9149 11.8076 95.4468 10.2675 97.3192 10.2675C98.3404 10.2675 99.2766 10.6953 99.9149 11.4653L100 11.5509L94.1702 14.7167Z" fill="#000"/>
<path d="M42.3404 5.47594L42.383 5.39038H41.4894C41.0213 5.39038 40.5958 5.64707 40.383 6.03209L37.4468 10.9091H35.2341V6.20322C35.2341 5.77541 34.8936 5.39038 34.4256 5.39038H33.7021V18.2674H35.2341V12.2353H37.4468L40.5532 17.6257C40.766 18.0107 41.2341 18.2674 41.7021 18.2674H42.6809L38.7234 11.5936L42.3404 5.47594Z" fill="#000"/>
<path d="M79.617 12.0642C79.4468 11.6364 79.2766 11.2514 78.9787 10.9091C78.0851 9.62571 76.5958 8.89844 75.0638 8.89844H75.0213C72.4681 8.94122 70.383 10.9519 70.2553 13.476C70.1702 14.845 70.6383 16.1284 71.5745 17.0696C72.5107 18.0535 73.7447 18.5669 75.0638 18.5669C76.8511 18.5669 78.4681 17.5829 79.3192 16V15.9573L78.766 15.6578C78.6383 15.5722 78.4681 15.5295 78.3404 15.5295C78.0851 15.5295 77.8298 15.6578 77.7021 15.8289C77.0638 16.6418 76.0851 17.0696 75.0638 17.0696C74.1277 17.0696 73.1915 16.6418 72.5532 15.9573L72.5107 15.9145L79.617 12.0642ZM71.9149 14.7594L71.8298 14.8022L71.7873 14.7166C71.7021 14.3744 71.6596 14.0749 71.6596 13.7327C71.6596 11.8503 73.1915 10.3102 75.0638 10.3102C76.0851 10.3102 77.0213 10.738 77.6596 11.5081L77.7021 11.5508L71.9149 14.7594Z" fill="#000"/>
</g>
<defs>
<clipPath id="clip0">
<rect width="112" height="24" fill="white"/>
</clipPath>
</defs>
</svg>
