<?xml version="1.0" encoding="utf-8"?>
<!-- Generator: Adobe Illustrator 23.0.1, SVG Export Plug-In . SVG Version: 6.00 Build 0)  -->
<svg version="1.1" id="Слой_1" xmlns="http://www.w3.org/2000/svg" xmlns:xlink="http://www.w3.org/1999/xlink" x="0px" y="0px"
	 viewBox="0 0 480.8 155.6" style="enable-background:new 0 0 480.8 155.6;" xml:space="preserve">
<style type="text/css">
	.st0{fill:#0A5CFE;}
	.st1{fill:#FFFFFF;}
</style>
<rect class="st0" width="482.4" height="156.5"/>
<g>
	<g>
		<path class="st1" d="M151.4,56.7h11.8v50.9h-11.8V56.7z"/>
		<path class="st1" d="M221.9,56.7v50.9h-9.7l-25.4-30.9v30.9h-11.6V56.7h9.7l25.3,30.9V56.7H221.9z"/>
		<path class="st1" d="M244.3,105.1c-4.2-2.3-7.5-5.4-9.9-9.4c-2.4-4-3.6-8.5-3.6-13.6c0-5,1.2-9.6,3.6-13.6c2.4-4,5.7-7.1,9.9-9.4
			c4.2-2.3,8.9-3.4,14.1-3.4c4.4,0,8.4,0.8,12,2.3c3.6,1.6,6.6,3.8,9,6.7l-7.6,7c-3.4-4-7.7-6-12.8-6c-3.2,0-6,0.7-8.4,2.1
			c-2.5,1.4-4.4,3.3-5.8,5.8c-1.4,2.5-2.1,5.3-2.1,8.4c0,3.2,0.7,6,2.1,8.4c1.4,2.5,3.3,4.4,5.8,5.8c2.5,1.4,5.3,2.1,8.4,2.1
			c5.1,0,9.4-2,12.8-6l7.6,7c-2.4,3-5.4,5.2-9,6.8c-3.6,1.6-7.6,2.3-12,2.3C253.2,108.5,248.5,107.4,244.3,105.1z"/>
		<path class="st1" d="M319.8,96.7h-23.6l-4.5,10.9h-12.1l22.7-50.9h11.6l22.8,50.9h-12.4L319.8,96.7z M316.1,87.8L308,68.3
			l-8.1,19.5H316.1z"/>
		<path class="st1" d="M375.8,59c3.3,1.5,5.9,3.6,7.7,6.4c1.8,2.8,2.7,6,2.7,9.8c0,3.7-0.9,7-2.7,9.8c-1.8,2.8-4.4,4.9-7.7,6.4
			c-3.3,1.5-7.2,2.2-11.7,2.2h-10.3v14H342V56.7h22C368.5,56.7,372.4,57.5,375.8,59z M371.4,81.7c1.8-1.5,2.8-3.7,2.8-6.5
			c0-2.9-0.9-5.1-2.8-6.6c-1.8-1.5-4.5-2.3-8.1-2.3h-9.6V84h9.6C366.9,84,369.6,83.2,371.4,81.7z"/>
		<path class="st1" d="M425.5,96.7h-23.6l-4.5,10.9h-12.1l22.7-50.9h11.6l22.8,50.9H430L425.5,96.7z M421.8,87.8l-8.1-19.5
			l-8.1,19.5H421.8z"/>
	</g>
	<g>
		<path class="st1" d="M82.9,50.4c-17.5,0-31.7,14.2-31.7,31.7s14.2,31.7,31.7,31.7s31.7-14.2,31.7-31.7S100.4,50.4,82.9,50.4z
			 M82.9,105.9c-13.1,0-23.7-10.6-23.7-23.7s10.6-23.7,23.7-23.7c11.7,0,21.5,8.5,23.4,19.7h-8.5C96,71.6,90,66.7,82.9,66.7
			c-8.5,0-15.4,6.9-15.4,15.4s6.9,15.4,15.4,15.4c7.1,0,13.1-4.8,14.9-11.4h8.5C104.3,97.3,94.6,105.9,82.9,105.9z M90.3,82.1
			c0,4.1-3.3,7.4-7.4,7.4s-7.4-3.3-7.4-7.4s3.3-7.4,7.4-7.4S90.3,78.1,90.3,82.1z"/>
		<path class="st1" d="M82.9,33.1c-27,0-49,22-49,49s22,49,49,49s49-22,49-49S109.9,33.1,82.9,33.1z M82.9,123.1
			c-22.6,0-41-18.4-41-41s18.4-41,41-41s41,18.4,41,41S105.5,123.1,82.9,123.1z"/>
	</g>
</g>
</svg>
