<svg xmlns="http://www.w3.org/2000/svg" width="190" height="30" viewBox="0 0 190 30" fill="none"><path d="M139.458 0V1.09704H142.981V28.903H139.458V30H161.962C161.962 30 162.35 25.6477 162.54 23.5468C162.618 22.7294 162.857 20.5641 162.857 20.5641H161.659C161.239 22.672 160.314 24.642 158.968 26.3002C157.865 27.7181 156.236 28.6104 154.466 28.7667C152.775 28.8886 149.188 28.903 149.188 28.903V1.07553H152.711V0H139.458Z" fill="#333333"/><path d="M115.123 0V1.09704H118.646V28.903H115.123V30H137.627C137.627 30 138.008 25.6477 138.205 23.5468C138.283 22.7294 138.522 20.5641 138.522 20.5641H137.317C136.897 22.672 135.972 24.642 134.626 26.3002C133.523 27.7181 131.894 28.6104 130.124 28.7667C128.433 28.8886 124.846 28.903 124.846 28.903V1.07553H128.369V0H115.123Z" fill="#333333"/><path fill-rule="evenodd" clip-rule="evenodd" d="M4.39807 3.93894C6.69812 1.64121 9.76185 0.25759 13.0144 0.0477034C13.3614 0.0159011 13.697 0 14.0212 0C20.9457 0 26.7127 5.34278 27.9045 12.103C28.242 14.1367 28.2095 16.2141 27.8086 18.2363C27.2359 21.2409 25.7571 24.0006 23.569 26.1483C22.2265 27.5174 20.5863 28.5618 18.7745 29.2013C16.642 29.9334 14.3686 30.1666 12.1308 29.8828C9.68339 29.6277 7.36794 28.6526 5.48024 27.0819C-0.0539114 22.4887 -1.50594 14.2633 1.62414 7.86424C2.33292 6.41725 3.26934 5.09214 4.39807 3.93894ZM8.19846 25.0707C8.66272 26.7202 9.89904 28.0521 11.5257 28.6553L11.5189 28.6888C12.3057 28.9611 13.1345 29.0971 13.9684 29.0908C14.5296 29.0885 15.0896 29.0392 15.6423 28.9434C17.2255 28.6933 18.6021 27.736 19.371 26.3505C20.0811 25.0997 20.4951 23.7072 20.5821 22.2768C20.7863 20.0188 20.8475 16.2601 20.8475 15.4762C20.8475 15.262 20.8521 14.9534 20.8575 14.589C20.8718 13.6196 20.892 12.2558 20.8475 11.2283C20.8124 9.60185 20.584 7.98505 20.1671 6.4109C19.6295 4.52147 18.6361 2.96704 16.6765 2.24343C15.282 1.7687 13.7801 1.68976 12.3422 2.01562C10.056 2.42433 8.79723 3.95196 8.11681 6.0357C7.50466 8.19133 7.22033 10.4244 7.27309 12.6621C7.24134 15.1456 7.27082 17.6269 7.36155 20.106C7.391 21.7924 7.67301 23.4654 8.19846 25.0707Z" fill="#333333"/><path d="M38.8533 0.279284C37.2006 0.716713 35.7284 1.71937 34.6625 3.13343C33.1671 5.06158 32.5071 7.57297 32.8455 10.0474C33.1974 13.0173 34.5986 15.1767 37.3242 16.178C39.41 16.9546 41.5277 17.6494 43.6327 18.385C44.5985 18.6522 45.4812 19.1855 46.192 19.9313C47.9098 21.9514 47.828 25.0536 46.0064 26.9679C44.1766 28.9365 41.9244 29.2907 39.5571 28.4801C37.1898 27.6695 35.6159 25.8439 34.6561 23.4258C34.3874 22.7446 34.1955 22.0634 33.9652 21.3482H32.9415V29.2907H33.9779C33.9779 29.2907 35.2576 27.4924 35.2896 27.4992L36.0765 28.0442C38.2386 29.622 40.8773 30.2806 43.4728 29.8902C45.9842 29.5574 48.2108 28.0089 49.5062 25.6941C51.0081 23.1402 51.3243 19.9932 50.3635 17.1589C49.7612 14.9071 48.1628 13.1112 46.0832 12.3498C44.6628 11.8253 43.2168 11.3757 41.7837 10.8784C40.5297 10.4926 39.2953 10.0378 38.0855 9.51608C35.4047 8.23546 35.3471 4.43448 37.4457 2.49993C39.25 0.769733 42.1611 0.824227 44.0358 1.99586C45.545 2.98621 46.6344 4.56123 47.0749 6.38946C47.2669 7.07064 47.382 7.75182 47.5292 8.39894H48.5145V0.756109H47.5228C47.5228 0.756109 46.5951 1.78469 46.3519 2.04354C45.8437 1.64092 45.3067 1.28108 44.746 0.967275C43.8184 0.460428 42.8088 0.14604 41.7709 0.0408708C41.4766 0 41.227 0 40.9519 0C40.2443 0.00163178 39.5395 0.095423 38.8533 0.279284" fill="#333333"/><path d="M54.2997 0V1.09756H57.7568V28.9168H54.2858V30H67.3822V28.8953H63.9321V1.07604H67.3892V0H54.2997Z" fill="#333333"/><path d="M72.0729 0V1.08244C73.0316 1.08244 73.9618 1.0466 74.892 1.08244C75.2708 1.07791 75.637 1.21901 75.9152 1.4767C76.1871 1.85663 75.7935 2.19355 75.5216 2.5233C72.7931 5.49104 70.0623 8.44922 67.329 11.3978L64.5814 14.3799L74.4841 28.9104H70.9924V30H84.2366V28.9032H82.0901L72.402 14.6595L69.7546 10.7742C70.4701 10.0072 75.8221 4.32258 77.8113 2.2509C78.3908 1.60852 79.1959 1.21553 80.058 1.15412C80.7306 1.11111 81.396 1.08244 82.0757 1.05376V0H72.0729Z" fill="#333333"/><path d="M86.1442 0V1.11855H89.6879V28.9245H86.1084V30H110.749L111.379 20.4995H110.205C109.933 21.4603 109.697 22.4068 109.389 23.3246C108.294 26.63 106.168 28.6663 102.545 28.7882C100.398 28.8528 98.2929 28.8671 96.1595 28.903C96.1046 28.8952 96.0513 28.8782 96.002 28.8528V15.3011C96.9183 15.3442 97.8132 15.3585 98.7081 15.4302C100.598 15.4106 102.188 16.844 102.366 18.7285C102.509 19.5172 102.588 20.3203 102.696 21.1233H103.82V8.93403H102.717C102.674 9.45029 102.66 9.93786 102.595 10.4254C102.402 11.9025 101.801 13.1429 100.355 13.7524C99.2063 14.153 97.9876 14.3117 96.7752 14.2185H96.0593V1.04685C98.6222 1.09704 101.156 1.04685 103.676 1.21893C105.826 1.30844 107.702 2.70442 108.408 4.73948C108.788 5.65727 109.038 6.63241 109.353 7.60755H110.463L109.797 0.00717017L86.1442 0Z" fill="#333333"/><path d="M161.921 0V1.11641H164.721L173.314 16.145V28.8836H169.345V30H183.595V28.855H179.626V16.1522C179.626 16.1522 183.901 7.56441 186.039 3.45658C186.25 3.01546 186.488 2.58767 186.751 2.17557C187.087 1.61418 187.669 1.24732 188.319 1.18798C188.881 1.14504 189.437 1.11641 190 1.08063V0.0357824H181.457V1.11641C182.234 1.11641 184.307 1.15935 184.649 1.19513C184.827 1.18479 184.997 1.26638 185.101 1.41143C185.205 1.55647 185.228 1.74484 185.162 1.91078C185.067 2.33157 184.924 2.73984 184.735 3.12739C182.996 6.70563 179.263 14.2199 179.263 14.2199L171.896 1.09494H175.686V0H161.921Z" fill="#333333"/></svg>