<svg width="60" height="60" viewBox="0 0 60 60" fill="none" xmlns="http://www.w3.org/2000/svg">
<g clip-path="url(#clip0_201_12)">
<path d="M60 37.5V60H30V37.5H37.5V30H52.5V37.5H60ZM41.25 37.5H48.75V33.75H41.25V37.5ZM56.25 48.75H52.5V52.5H48.75V48.75H41.25V52.5H37.5V48.75H33.75V56.25H56.25V48.75ZM56.25 41.25H33.75V45H56.25V41.25ZM45.8496 26.25C44.7949 25.0586 43.5449 24.1406 42.0996 23.4961C40.6543 22.8516 39.1211 22.5195 37.5 22.5C35.9375 22.5 34.4824 22.793 33.1348 23.3789C31.7871 23.9648 30.5957 24.7656 29.5605 25.7812C28.5254 26.7969 27.7148 27.998 27.1289 29.3848C26.543 30.7715 26.25 32.2266 26.25 33.75C26.25 35.5469 25.8496 37.2363 25.0488 38.8184C24.248 40.4004 23.1152 41.7285 21.6504 42.8027C22.5293 43.252 23.3496 43.7695 24.1113 44.3555C24.873 44.9414 25.5859 45.6055 26.25 46.3477V56.25C26.25 54.707 25.957 53.252 25.3711 51.8848C24.7852 50.5176 23.9844 49.3262 22.9688 48.3105C21.9531 47.2949 20.752 46.4844 19.3652 45.8789C17.9785 45.2734 16.5234 44.9805 15 45C13.4375 45 11.9824 45.293 10.6348 45.8789C9.28711 46.4648 8.0957 47.2656 7.06055 48.2812C6.02539 49.2969 5.21484 50.498 4.62891 51.8848C4.04297 53.2715 3.75 54.7266 3.75 56.25H0C0 54.8242 0.195313 53.4473 0.585938 52.1191C0.976562 50.791 1.5332 49.5313 2.25586 48.3398C2.97852 47.1484 3.85742 46.0938 4.89258 45.1758C5.92773 44.2578 7.08008 43.4668 8.34961 42.8027C6.9043 41.748 5.78125 40.4297 4.98047 38.8477C4.17969 37.2656 3.76953 35.5664 3.75 33.75C3.75 32.207 4.04297 30.752 4.62891 29.3848C5.21484 28.0176 6.01562 26.8262 7.03125 25.8105C8.04688 24.7949 9.23828 23.9844 10.6055 23.3789C11.9727 22.7734 13.4375 22.4805 15 22.5C16.7969 22.5 18.4863 22.9004 20.0684 23.7012C21.6504 24.502 22.9785 25.6348 24.0527 27.0996C24.7949 25.6348 25.7422 24.3262 26.8945 23.1738C28.0469 22.0215 29.3652 21.0645 30.8496 20.3027C29.4043 19.248 28.2813 17.9297 27.4805 16.3477C26.6797 14.7656 26.2695 13.0664 26.25 11.25C26.25 9.70703 26.543 8.25195 27.1289 6.88477C27.7148 5.51758 28.5156 4.32617 29.5312 3.31055C30.5469 2.29492 31.7383 1.48437 33.1055 0.878906C34.4727 0.273438 35.9375 -0.0195313 37.5 0C39.043 0 40.498 0.292969 41.8652 0.878906C43.2324 1.46484 44.4238 2.26562 45.4395 3.28125C46.4551 4.29688 47.2656 5.49805 47.8711 6.88477C48.4766 8.27148 48.7695 9.72656 48.75 11.25C48.75 13.0469 48.3496 14.7363 47.5488 16.3184C46.748 17.9004 45.6152 19.2285 44.1504 20.3027C45.4785 20.9668 46.6797 21.7969 47.7539 22.793C48.8281 23.7891 49.7363 24.9414 50.4785 26.25H45.8496ZM15 41.25C16.0352 41.25 17.002 41.0547 17.9004 40.6641C18.7988 40.2734 19.5996 39.7363 20.3027 39.0527C21.0059 38.3691 21.543 37.5781 21.9141 36.6797C22.2852 35.7813 22.4805 34.8047 22.5 33.75C22.5 32.7148 22.3047 31.748 21.9141 30.8496C21.5234 29.9512 20.9863 29.1504 20.3027 28.4473C19.6191 27.7441 18.8281 27.207 17.9297 26.8359C17.0313 26.4648 16.0547 26.2695 15 26.25C13.9648 26.25 12.998 26.4453 12.0996 26.8359C11.2012 27.2266 10.4004 27.7637 9.69727 28.4473C8.99414 29.1309 8.45703 29.9219 8.08594 30.8203C7.71484 31.7187 7.51953 32.6953 7.5 33.75C7.5 34.7852 7.69531 35.752 8.08594 36.6504C8.47656 37.5488 9.01367 38.3496 9.69727 39.0527C10.3809 39.7559 11.1719 40.293 12.0703 40.6641C12.9687 41.0352 13.9453 41.2305 15 41.25ZM30 11.25C30 12.2852 30.1953 13.252 30.5859 14.1504C30.9766 15.0488 31.5137 15.8496 32.1973 16.5527C32.8809 17.2559 33.6719 17.793 34.5703 18.1641C35.4687 18.5352 36.4453 18.7305 37.5 18.75C38.5352 18.75 39.502 18.5547 40.4004 18.1641C41.2988 17.7734 42.0996 17.2363 42.8027 16.5527C43.5059 15.8691 44.043 15.0781 44.4141 14.1797C44.7852 13.2813 44.9805 12.3047 45 11.25C45 10.2148 44.8047 9.24805 44.4141 8.34961C44.0234 7.45117 43.4863 6.65039 42.8027 5.94727C42.1191 5.24414 41.3281 4.70703 40.4297 4.33594C39.5313 3.96484 38.5547 3.76953 37.5 3.75C36.4648 3.75 35.498 3.94531 34.5996 4.33594C33.7012 4.72656 32.9004 5.26367 32.1973 5.94727C31.4941 6.63086 30.957 7.42188 30.5859 8.32031C30.2148 9.21875 30.0195 10.1953 30 11.25Z" fill="#085CFE"/>
</g>
<defs>
<clipPath id="clip0_201_12">
<rect width="60" height="60" fill="white"/>
</clipPath>
</defs>
</svg>
